<svg xmlns="http://www.w3.org/2000/svg" style="display:none;">
    <symbol id="icon-phone" viewBox="0 0 640 640">
        <path d="M160 96C124.7 96 96 124.7 96 160L96 
            480C96 515.3 124.7 544 160 544L480 544C515.3 544 544 515.3 
            544 480L544 160C544 124.7 515.3 96 480 96L160 96zM248 
            192.7C257.8 190 268.1 195.1 272 204.5L292.3 
            253.2C295.7 261.5 293.4 271 286.4 276.7L264.3 
            294.7C280.5 330.5 308.8 359.7 343.9 377.1L363.2 
            353.5C368.9 346.6 378.4 344.2 386.7 347.6L435.4 
            367.9C444.8 371.8 449.8 382.1 447.2 391.9L446.4 394.7C437.6 
            427 406.3 454.6 368.2 446.5C280.7 428 211.9 359.1 193.3 
            271.6C185.2 233.5 212.8 202.2 245.1 193.4L247.9 192.6z"/>
    </symbol>
    
    <symbol id="icon-email" viewBox="0 0 640 640">
        <path d="M112 128C85.5 128 64 149.5 64 176C64 191.1 71.1 
              205.3 83.2 214.4L291.2 370.4C308.3 383.2 331.7 383.2 348.8 
              370.4L556.8 214.4C568.9 205.3 576 191.1 576 176C576 149.5 
              554.5 128 528 128L112 128zM64 260L64 448C64 483.3 92.7 512 128 
              512L512 512C547.3 512 576 483.3 576 448L576 260L377.6 408.8C343.5 
              434.4 296.5 434.4 262.4 408.8L64 260z"/>
    </symbol>
</svg>