<svg xmlns="http://www.w3.org/2000/svg" style="display:none;">
    <symbol id="icon-phone" viewBox="0 0 640 640">
        <path d="M160 96C124.7 96 96 124.7 96 160L96 
            480C96 515.3 124.7 544 160 544L480 544C515.3 544 544 515.3 
            544 480L544 160C544 124.7 515.3 96 480 96L160 96zM248 
            192.7C257.8 190 268.1 195.1 272 204.5L292.3 
            253.2C295.7 261.5 293.4 271 286.4 276.7L264.3 
            294.7C280.5 330.5 308.8 359.7 343.9 377.1L363.2 
            353.5C368.9 346.6 378.4 344.2 386.7 347.6L435.4 
            367.9C444.8 371.8 449.8 382.1 447.2 391.9L446.4 394.7C437.6 
            427 406.3 454.6 368.2 446.5C280.7 428 211.9 359.1 193.3 
            271.6C185.2 233.5 212.8 202.2 245.1 193.4L247.9 192.6z"/>
    </symbol>
    
    <symbol id="icon-email" viewBox="0 0 640 640">
        <path d="M112 128C85.5 128 64 149.5 64 176C64 191.1 71.1 
              205.3 83.2 214.4L291.2 370.4C308.3 383.2 331.7 383.2 348.8 
              370.4L556.8 214.4C568.9 205.3 576 191.1 576 176C576 149.5 
              554.5 128 528 128L112 128zM64 260L64 448C64 483.3 92.7 512 128 
              512L512 512C547.3 512 576 483.3 576 448L576 260L377.6 408.8C343.5 
              434.4 296.5 434.4 262.4 408.8L64 260z"/>
    </symbol>

    <symbol id="icon-search" viewBox="0 0 640 640">
        <path d="M480 272C480 317.9 465.1 360.3 440 394.7L566.6 521.4C579.1 
            533.9 579.1 554.2 566.6 566.7C554.1 579.2 533.8 579.2 521.3 566.7L394.7 
            440C360.3 465.1 317.9 480 272 480C157.1 480 64 386.9 64 272C64 157.1 157.1 
            64 272 64C386.9 64 480 157.1 480 272zM272 416C351.5 416 416 351.5 416 272C416 
            192.5 351.5 128 272 128C192.5 128 128 192.5 128 272C128 351.5 192.5 416 272 
            416z"/>
    </symbol>

    <symbol id="icon-cart" viewBox="0 0 640 640">
        <path d="M320 64C326.6 64 332.9 66.7 337.4 71.5L481.4 223.5L481.9 224L560 
              224C577.7 224 592 238.3 592 256C592 270.5 582.4 282.7 569.2 
              286.7L523.1 493.9C516.6 523.2 490.6 544 460.6 544L179.3 544C149.3 
              544 123.3 523.2 116.8 493.9L70.8 286.7C57.6 282.8 48 270.5 48 256C48 
              238.3 62.3 224 80 224L158.1 224L158.6 223.5L302.6 71.5C307.1 66.7 
              313.4 64 320 64zM320 122.9L224.2 224L415.8 224L320 122.9zM240 328C240 
              314.7 229.3 304 216 304C202.7 304 192 314.7 192 328L192 440C192 453.3 
              202.7 464 216 464C229.3 464 240 453.3 240 440L240 328zM320 304C306.7 
              304 296 314.7 296 328L296 440C296 453.3 306.7 464 320 464C333.3 
              464 344 453.3 344 440L344 328C344 314.7 333.3 304 320 304zM448 
              328C448 314.7 437.3 304 424 304C410.7 304 400 314.7 400 328L400 
              440C400 453.3 410.7 464 424 464C437.3 464 448 453.3 448 440L448 328z"/>
    </symbol>
    </svg>

    <svg xmlns="http://www.w3.org/2000/svg"><symbol id="Layer_1" data-name="Layer 1" viewBox="0 0 544.18 410.9"><defs>
        <style>.cls-1{fill:#f3ab1c}.cls-2{fill:#e73980}.cls-3{fill:#210c3a}.cls-4{fill:#5bbbb0}.cls-5{opacity:.45}</style></defs>
        <g>
            <path class="cls-3" d="M.03,181.18c0-5.07.75-9.77,2.23-14.08,1.48-4.32,3.62-8.08,6.38-11.26s6.14-5.66,10.16-7.49c4-1.81,8.53-2.71,13.6-2.71s9.69.9,
            13.74,2.71c4.04,1.81,7.44,4.29,10.21,7.49,2.78,3.18,4.89,6.94,6.34,11.26,1.47,4.31,2.2,9.01,2.2,14.08v1.36c0,5.07-.73,9.79-2.2,14.12-1.45,
            4.34-3.57,8.09-6.34,11.24-2.78,3.16-6.17,5.65-10.2,7.43-4.03,1.77-8.56,2.67-13.64,
            2.67s-9.69-.9-13.7-2.67c-4.03-1.78-7.43-4.27-10.2-7.43-2.78-3.15-4.9-6.91-6.38-11.24-1.48-4.34-2.23-9.05-2.23-14.12v-1.36h.03ZM15.71,
            182.53c0,3.14.31,6.12.96,8.9.64,2.78,1.65,5.24,3.02,7.33,1.38,2.09,3.12,3.73,5.27,4.93,2.12,1.21,4.65,1.81,7.57,1.81s5.4-.59,
            7.51-1.81c2.12-1.2,3.87-2.84,5.23-4.93,1.36-2.09,
            2.36-4.53,3.02-7.33.66-2.78,1-5.76,1-8.9v-1.36c0-3.09-.34-6.03-1-8.8-.66-2.78-1.68-5.21-3.07-7.3-1.37-2.09-3.12-3.76-5.25-4.99-2.12-1.26-4.65-1.88-7.58-1.88s-5.42.62-7.5,
            1.88c-2.09,1.24-3.81,2.91-5.2,4.99-1.37,2.09-2.39,4.52-3.02,7.3-.65,2.77-.96,5.71-.96,8.8v1.36h0Z"></path>
            <rect class="cls-3" x="145.48" y="101.74" width="15.66" height="114.97" rx="2.77" ry="2.77"></rect>
            <path class="cls-4" d="M174.69,128.79c0-2.4.76-4.41,2.27-5.99,1.53-1.6,3.71-2.39,6.55-2.39s5.03.79,6.57,2.39c1.55,1.6,2.33,3.6,2.33,5.99s-.78,4.34-2.33,
            5.9c-1.54,1.58-3.74,2.36-6.57,2.36s-5.03-.78-6.55-2.36c-1.53-1.57-2.27-3.53-2.27-5.9h0Z"></path>
            <rect class="cls-3" x="175.65" y="146.92" width="15.66" height="69.79" rx="2.77" ry="2.77"></rect>
            <path class="cls-3" d="M216.6,146.92c1.53,0,2.84,1.24,2.92,2.77l.14,2.54c.08,1.53,1.05,1.89,2.13.83,0,0,3.42-3.33,6.85-4.97,
            3.45-1.62,7.26-2.44,11.48-2.44,3.35,0,6.38.47,9.12,1.4s5.07,2.42,6.99,4.48c1.94,2.06,3.43,4.75,4.48,8.05,1.06,3.31,1.41,
            9.31,1.41,9.31.08,1.53.17,4.01.17,5.54v39.53c0,1.53-1.24,2.77-2.77,2.77h-10.13c-1.53,0-2.77-1.24-2.77-2.77v-39.68c0-1.53-.07-4.01-.17-5.54,0,
            0-.1-1.68-.64-3.33-.55-1.65-1.33-2.99-2.36-4.03s-2.3-1.77-3.83-2.23c-1.54-.45-3.29-.68-5.27-.68-3.22,0-6.02.76-8.42,2.32-2.39,1.55-4.11,4-4.11,
            4-.88,1.24-1.6,3.5-1.6,5.03v44.13c0,1.53-1.24,2.77-2.77,2.77h-10.13c-1.53,0-2.77-1.24-2.77-2.77v-64.25c0-1.53,1.24-2.77,2.77-2.77h9.24Z"></path>
            <path class="cls-3" d="M305.45,
            218c-5.16,0-9.8-.86-13.93-2.58-4.12-1.72-7.63-4.08-10.51-7.09s-5.1-6.58-6.65-10.71c-1.55-4.12-2.09-10.58-2.09-10.58-.13-1.51-.23-3.33-.23-4.05s.1-2.53.21-4.05c0,
            0,.59-7.73,2.23-12.18,1.62-4.46,3.87-8.23,6.71-11.36,2.82-3.12,6.17-5.52,10.03-7.22,3.84-1.71,
            7.99-2.56,12.42-2.56,5.07,0,9.48.85,13.22,2.56,3.74,1.69,6.84,4.07,9.29,7.13,2.44,3.05,4.28,6.68,
            5.48,10.89,1.2,4.21,1.62,11.1,1.62,11.1.1,1.53.17,4.01.17,5.54v1.17c0,1.53-1.24,2.77-2.77,2.77h-40.06c-1.53,
            0-2.58,1.23-2.36,2.74,0,0,.37,2.46,1.3,4.75.93,2.27,2.19,4.25,3.79,5.9,1.6,1.65,3.46,2.95,5.65,3.9,2.18.95,4.63,1.43,7.39,1.43,3.87,0,7.23-.78,10.09-2.32,
            2.87-1.55,5.55-4.38,5.55-4.38,1.05-1.1,2.81-1.14,3.91-.1l4.44,4.24c1.1,1.05,1.26,2.91.34,4.12,0,0-.83,1.1-2.49,2.67-1.65,1.58-3.6,2.97-5.81,4.2-2.22,1.23-4.73,
            2.22-7.51,2.95-2.8.76-5.93,1.13-9.42,1.13h-.01ZM303.58,158.21c-3.01,0-6.03.82-8.46,2.64s-4.21,4.72-5.31,7.46c-.9,2.23-1.24,4.27-1.24,4.27-.25,1.5.79,2.73,2.32,
            2.73h24.31c1.53,0,2.68-1.24,2.57-2.77,0,0-.14-2.06-.81-4.36-.55-1.92-1.37-3.62-2.49-5.1s-2.57-2.67-4.35-3.55c-1.78-.89-3.95-1.33-6.54-1.33h0Z"></path>
            <path class="cls-3" d="M131.91,168.87c.07,1.53.13,4.01.13,5.54v39.55c0,1.53-1.24,
            2.77-2.77,2.77h-10.06c-1.53,0-2.77-1.24-2.77-2.77v-42.46c0-2.84-.37-5.85-1.84-8.33-.73-1.24-1.79-2.3-3.02-3.05s-2.67-1.16-4.14-1.4c-1.06-.18-2.15-.27-3.22-.27-3.23,
            0-6.03.85-8.43,2.39-2.39,1.54-4.35,3.64-5.76,6.17v204.44c0,1.53-1.24,2.77-2.77,2.77h-10.2c-1.53,0-2.77-1.24-2.77-2.77v-221.76c0-1.53,1.24-2.77,2.77-2.77h9.35c1.53,
            0,2.84,1.24,2.91,2.77l.28,5.24c2.39-2.95,5.34-5.2,8.86-6.88,3.36-1.54,7.16-2.39,11.37-2.39,3.38,0,6.47.42,9.12,1.4,2.81.85,5.06,2.39,7.02,4.49,1.96,1.96,3.52,4.63,
            4.49,8.01,1.13,3.38,1.41,9.31,1.41,9.31h.03Z"></path>
            <path class="cls-3" d="M134.23,299.84c-5.16,0-9.8-.86-13.93-2.58s-7.63-4.08-10.51-7.09c-2.88-3.01-5.1-6.58-6.65-10.71-1.55-4.12-2.09-10.58-2.09-10.58-.13-1.51-
            .23-3.33-.23-4.05s.1-2.53.21-4.05c0,0,.59-7.73,2.23-12.18,1.62-4.46,3.87-8.23,6.71-11.36,2.82-3.12,6.17-5.52,10.03-7.22,3.84-1.71,7.99-2.56,12.42-2.56,5.07,0,9.48.85,
            13.22,2.56,3.74,1.69,6.84,4.07,9.29,7.13,2.44,3.05,4.28,6.68,5.48,10.89,1.2,4.21,1.62,11.1,1.62,11.1.1,1.53.17,4.01.17,5.54v1.17c0,1.53-1.24,2.77-2.77,
            2.77h-40.06c-1.53,0-2.58,1.23-2.36,2.74,0,0,.37,2.46,1.3,4.75.93,2.27,2.19,4.25,3.79,5.9,1.6,1.65,3.46,2.95,5.65,3.9,2.18.95,4.63,1.43,7.39,1.43,3.87,0,
            7.23-.78,10.09-2.32,2.87-1.55,5.55-4.38,5.55-4.38,1.05-1.1,2.81-1.14,3.91-.1l4.44,4.24c1.1,1.05,1.26,2.91.34,4.12,0,0-.83,1.1-2.49,2.67-1.65,1.58-3.6,2.97-5.81,
            4.2-2.22,1.23-4.73,2.22-7.51,2.95-2.8.76-5.93,1.13-9.42,1.13h-.01ZM132.36,240.05c-2.85,0-5.69.72-8.05,2.37-2.54,1.79-4.24,4.42-5.48,7.25-1.05,2.37-1.45,
            4.76-1.45,4.76-.25,1.5.78,2.73,2.3,2.73h24.28c1.53,0,2.68-1.24,2.57-2.77,0,0-.14-2.06-.81-4.36-.55-1.92-1.37-3.62-2.49-5.1s-2.57-2.67-4.35-3.55c-1.78-.89-3.95-1.33-6.54-1.33h.01Z"></path>
            <path class="cls-3" d="M215.29,298.55c-1.53,0-3.12-.81-3.56-1.78l-.27-1.12-.27-1.1c-.25-1.37-1.37-1.64-2.47-.59,
            0,0-.18.17-1.45,1.12-1.26.93-2.66,1.77-4.18,2.47-1.53.72-3.19,1.27-4.97,1.68-1.78.41-3.69.61-5.71.61-3.49,
            0-6.68-.52-9.62-1.58-2.92-1.06-5.42-2.51-7.5-4.39-2.09-1.86-3.73-4.07-4.9-6.61-1.19-2.54-1.78-5.3-1.78-8.26,
            0-3.74.72-7.05,2.13-9.93,1.43-2.88,3.47-5.3,6.19-7.22,2.71-1.94,6.03-3.4,9.96-4.42,3.94-1,8.42-1.51,
            13.45-1.51h7.1c1.53,0,2.77-1.24,2.77-2.77v-1.82c0-3.62-1.02-6.5-3.04-8.67s-5.1-3.26-9.22-3.26c-1.85,0-3.52.25-5.03.75-1.5.49-2.78,1.16-3.83,
            1.99-2.05,1.62-2.66,4.05-2.66,4.05-.37,1.48-1.92,2.68-3.43,2.68h-11.57c-.73,0-1.19-1.24-.99-2.75,0,0,.34-2.66,1.69-5.21,1.36-2.56,3.29-4.83,
            5.78-6.84,2.49-1.99,5.51-3.6,9.05-4.8,3.56-1.21,7.51-1.81,11.91-1.81,3.91,0,7.51.51,10.83,1.51,3.31,1.02,6.16,2.51,8.57,4.52,2.42,1.99,4.28,4.49,
            5.62,7.49,1.33,2.98,1.99,6.48,1.99,10.48v30.96c0,6.27.89,11.29,2.64,15.03h0c0,.61-1.24,1.1-2.77,1.1h-10.48ZM195.29,287.27c1.81,0,3.49-.24,5.07-.72,
            1.57-.47,2.98-1.1,4.25-1.86,1.27-.76,2.39-1.67,3.32-2.67l.95-1.02c.72-1.13,1.31-3.31,1.31-4.83v-7.61c0-1.53-1.24-2.77-2.77-2.77h-2.92c-1.53,0-4.01.13-5.52.27,0,
            0-7.42.73-10.33,2.75-2.94,2.03-4.39,4.89-4.39,8.59,0,1.43.24,2.73.71,3.94.48,1.2,1.19,2.25,2.13,3.12.93.88,2.1,1.57,3.46,2.06,1.34.49,2.94.75,4.73.75h0Z"></path>
            <path class="cls-3" d="M275.26,241.62c0,.81-.93,1.34-2.08,1.17l-1.06-.08c-1.06-.08-2.13-.13-3.26-.13-3.79,0-6.85.73-9.22,2.19-2.36,1.47-4.12,3.49-5.3,6.07v44.96c0,
            1.53-1.24,2.77-2.77,2.77h-10.13c-1.53,0-2.77-1.24-2.77-2.77v-64.25c0-1.53,1.24-2.77,2.77-2.77h9.42c1.53,0,2.82,1.24,2.91,2.77l.25,5.04c1.77-2.84,3.94-5.07,
            6.54-6.67,2.6-1.61,5.66-2.43,9.18-2.43,1.86,0,2.85.24,2.85.24,1.48.35,2.68,1.89,2.68,3.42,0,0,0,1.31-.01,3.35l-.03,6.38v.73h.01Z"></path>
            <path class="cls-3" d="M293.36,228.76c1.53,0,2.84,1.24,2.92,2.77l.14,2.54c.08,1.53,1.05,1.89,2.13.83,0,0,3.42-3.33,6.85-4.97,3.45-1.62,7.26-2.44,11.48-2.44,3.35,
            0,6.38.47,9.12,1.4s5.07,2.42,6.99,4.48c1.94,2.06,3.43,4.75,4.48,8.05s1.41,9.31,1.41,9.31c.08,1.53.17,4.01.17,5.54v39.53c0,1.53-1.24,2.77-2.77,2.77h-10.13c-1.53,
            0-2.77-1.24-2.77-2.77v-39.68c0-1.53-.07-4.01-.17-5.54,0,0-.1-1.68-.64-3.33-.55-1.65-1.33-2.99-2.36-4.03s-2.3-1.77-3.83-2.23c-1.54-.45-3.29-.68-5.27-.68-3.22,
            0-6.02.76-8.42,2.32-2.39,1.55-4.11,4-4.11,4-.88,1.24-1.6,3.5-1.6,5.03v44.13c0,1.53-1.24,2.77-2.77,2.77h-10.13c-1.53,0-2.77-1.24-2.77-2.77v-64.25c0-1.53,1.24-2.77,2.77-2.77h9.24Z"></path>
            <path class="cls-1" d="M351.52,210.64c0-2.4.76-4.41,2.27-5.99,1.53-1.6,3.71-2.39,6.55-2.39s5.03.79,6.57,2.39c1.55,1.6,2.33,3.6,2.33,5.99s-.78,4.34-2.33,5.9c-1.54,
            1.58-3.74,2.36-6.57,2.36s-5.03-.78-6.55-2.36c-1.53-1.57-2.27-3.53-2.27-5.9Z"></path>
            <path class="cls-2" d="M526.46,285.49c0-2.4.76-4.41,2.27-5.99,1.53-1.6,3.71-2.39,6.55-2.39s5.03.79,6.57,2.39c1.55,1.6,2.33,3.6,2.33,5.99s-.78,
            4.34-2.33,5.9c-1.54,1.58-3.74,2.36-6.57,2.36s-5.03-.78-6.55-2.36c-1.53-1.57-2.27-3.53-2.27-5.9Z"></path>
            <rect class="cls-3" x="352.48" y="228.76" width="15.66" height="69.79" rx="2.77" ry="2.77"></rect>
            <path class="cls-3" d="M393.4,228.76c1.53,0,2.84,1.24,2.92,2.77l.14,2.54c.08,1.53,1.05,1.89,2.13.83,0,0,3.42-3.33,6.85-4.97,3.45-1.62,
            7.26-2.44,11.48-2.44,3.35,0,6.38.47,9.12,1.4s5.07,2.42,6.99,4.48c1.94,2.06,3.43,4.75,4.48,8.05,1.06,3.31,1.41,9.31,1.41,9.31.08,1.53.17,4.01.17,
            5.54v39.53c0,1.53-1.24,2.77-2.77,2.77h-10.13c-1.53,0-2.77-1.24-2.77-2.77v-39.68c0-1.53-.07-4.01-.17-5.54,0,
            0-.1-1.68-.64-3.33-.55-1.65-1.33-2.99-2.36-4.03s-2.3-1.77-3.83-2.23c-1.54-.45-3.29-.68-5.27-.68-3.22,0-6.02.76-8.42,2.32-2.39,1.55-4.11,4-4.11,
            4-.88,1.24-1.6,3.5-1.6,5.03v44.13c0,1.53-1.24,2.77-2.77,2.77h-10.13c-1.53,0-2.77-1.24-2.77-2.77v-64.25c0-1.53,1.24-2.77,2.77-2.77h9.24Z"></path>
            <path class="cls-3" d="M448.8,263.82c0-.37.08-1.92.17-3.45,0,0,.47-7.36,1.75-11.75,1.29-4.38,3.15-8.15,5.58-11.29,2.44-3.12,5.37-5.57,
            8.81-7.29s7.32-2.58,11.61-2.58,7.84.72,10.89,2.16,5.89,4.22,5.89,4.22c1.09,1.06,2.1.69,2.26-.82l.16-1.53c.16-1.51,1.53-2.75,3.05-2.75h8.59c1.53,0,2.77,1.24,2.77,
            2.77v62.32c0,1.53-.11,4.01-.24,5.52,0,0-.52,6.09-2.08,9.75-1.55,3.64-3.71,6.72-6.48,9.21-2.78,2.5-6.12,4.41-10,5.71-3.9,1.31-8.16,1.96-12.81,1.96-1.94,
            0-4.08-.2-6.45-.61-2.36-.41-4.75-1.07-7.16-1.99-2.42-.93-4.7-2.12-6.91-3.59-2.19-1.45-3.79-3.28-3.79-3.28-1-1.14-1.06-3.07-.11-4.25l3.98-5.06c.95-1.2,2.61-1.3,
            3.7-.24,0,0,3.4,3.31,6.44,4.65,3.02,1.33,6.14,1.99,9.38,1.99,5.2,0,9.31-1.41,12.32-4.22s4.1-9.69,4.1-9.69c.24-1.51.42-3.8.42-5.08s-.92-1.51-2.05-.49c0,
            0-2.73,2.47-5.69,3.76-2.97,1.27-6.41,1.94-10.33,1.94-4.27,0-8.09-.9-11.53-2.67-3.42-1.78-6.33-4.25-8.77-7.39-2.43-3.14-4.29-6.86-5.58-11.2-1.29-4
            .31-1.75-11.33-1.75-11.33-.1-1.53-.18-3.07-.18-3.45l.04.04ZM464.39,263.82c0,.37.07,1.92.14,3.45,0,0,.17,3.25.79,5.96.62,2.74,1.6,5.14,2.94,7.19,1.34,2.08,3.01,3.69,
            5.03,4.87,2.03,1.19,4.46,1.77,7.3,1.77,3.52,0,6.4-.75,8.64-2.23,2.23-1.48,3.8-3.66,3.8-3.66.89-1.23,1.62-3.49,1.62-5.01v-25.16c0-1.53-.73-3.77-1.62-5.01,0,
            0-1.57-2.15-3.83-3.57s-5.08-2.12-8.47-2.12c-2.84,0-5.3.59-7.36,1.81-2.06,1.2-3.74,2.82-5.06,4.9-1.31,2.06-2.29,4.48-2.94,7.25-.65,2.78-.83,6.12-.83,6.12-.08,
            1.53-.14,3.07-.14,3.45h-.01Z"></path></g><g class="cls-5">
            <path class="cls-3" d="M41.19,124.88h-2.83V11.03c0-6.19,4.93-11.03,11.23-11.03h393.13c6.19,0,11.23,4.95,11.23,11.03v62.18c0,
            6.19-5.04,11.23-11.23,11.23h-105.36v39.27h-2.82v-42.09h108.18c4.63,0,8.41-3.77,8.41-8.4V11.03c0-4.52-3.77-8.21-8.41-8.21H49.59c-4.71,0-8.4,3.6-8.4,8.21v113.85Z"></path>
            <polygon class="cls-3" points="131.19 124.38 128.37 124.38 128.37 82.07 130.79 81.63 247.37 81.63 247.37 124.33 244.54 124.33 244.54 84.45 131.19 84.45 131.19 124.38"></polygon>
            <path class="cls-3" d="M120.16,410.89H49.59c-6.3,0-11.23-4.84-11.23-11.03v-159.67h2.83v159.67c0,4.6,3.69,8.21,8.4,8.21h70.57c4.53,0,8.21-3.68,8.21-8.21v-81.01h2.83v81.01c0,
            6.08-4.95,11.03-11.03,11.03Z"></path>
            <path class="cls-3" d="M326.34,410.9h-70.57c-6.19,0-11.23-4.95-11.23-11.03v-81.37h2.83v81.37c0,4.45,3.85,8.21,8.4,8.21h70.57c4.53,0,8.21-3.68,
            8.21-8.21v-81.19h2.82v81.19c0,6.08-4.95,11.03-11.03,11.03Z"></path></g></symbol></svg>
