<svg xmlns="http://www.w3.org/2000/svg" style="display:none;">
    <symbol id="icon-phone" viewBox="0 0 640 640">
        <path d="M160 96C124.7 96 96 124.7 96 160L96 
            480C96 515.3 124.7 544 160 544L480 544C515.3 544 544 515.3 
            544 480L544 160C544 124.7 515.3 96 480 96L160 96zM248 
            192.7C257.8 190 268.1 195.1 272 204.5L292.3 
            253.2C295.7 261.5 293.4 271 286.4 276.7L264.3 
            294.7C280.5 330.5 308.8 359.7 343.9 377.1L363.2 
            353.5C368.9 346.6 378.4 344.2 386.7 347.6L435.4 
            367.9C444.8 371.8 449.8 382.1 447.2 391.9L446.4 394.7C437.6 
            427 406.3 454.6 368.2 446.5C280.7 428 211.9 359.1 193.3 
            271.6C185.2 233.5 212.8 202.2 245.1 193.4L247.9 192.6z"/>
    </symbol>
    
    <symbol id="icon-email" viewBox="0 0 640 640">
        <path d="M112 128C85.5 128 64 149.5 64 176C64 191.1 71.1 
              205.3 83.2 214.4L291.2 370.4C308.3 383.2 331.7 383.2 348.8 
              370.4L556.8 214.4C568.9 205.3 576 191.1 576 176C576 149.5 
              554.5 128 528 128L112 128zM64 260L64 448C64 483.3 92.7 512 128 
              512L512 512C547.3 512 576 483.3 576 448L576 260L377.6 408.8C343.5 
              434.4 296.5 434.4 262.4 408.8L64 260z"/>
    </symbol>

    <symbol id="icon-search" viewBox="0 0 640 640">
        <path d="M480 272C480 317.9 465.1 360.3 440 394.7L566.6 521.4C579.1 
            533.9 579.1 554.2 566.6 566.7C554.1 579.2 533.8 579.2 521.3 566.7L394.7 
            440C360.3 465.1 317.9 480 272 480C157.1 480 64 386.9 64 272C64 157.1 157.1 
            64 272 64C386.9 64 480 157.1 480 272zM272 416C351.5 416 416 351.5 416 272C416 
            192.5 351.5 128 272 128C192.5 128 128 192.5 128 272C128 351.5 192.5 416 272 
            416z"/>
    </symbol>

    <symbol id="icon-cart" viewBox="0 0 640 640">
        <path d="M320 64C326.6 64 332.9 66.7 337.4 71.5L481.4 223.5L481.9 224L560 
              224C577.7 224 592 238.3 592 256C592 270.5 582.4 282.7 569.2 
              286.7L523.1 493.9C516.6 523.2 490.6 544 460.6 544L179.3 544C149.3 
              544 123.3 523.2 116.8 493.9L70.8 286.7C57.6 282.8 48 270.5 48 256C48 
              238.3 62.3 224 80 224L158.1 224L158.6 223.5L302.6 71.5C307.1 66.7 
              313.4 64 320 64zM320 122.9L224.2 224L415.8 224L320 122.9zM240 328C240 
              314.7 229.3 304 216 304C202.7 304 192 314.7 192 328L192 440C192 453.3 
              202.7 464 216 464C229.3 464 240 453.3 240 440L240 328zM320 304C306.7 
              304 296 314.7 296 328L296 440C296 453.3 306.7 464 320 464C333.3 
              464 344 453.3 344 440L344 328C344 314.7 333.3 304 320 304zM448 
              328C448 314.7 437.3 304 424 304C410.7 304 400 314.7 400 328L400 
              440C400 453.3 410.7 464 424 464C437.3 464 448 453.3 448 440L448 328z"/>
    </symbol>
</svg>